<svg width="30" height="30" viewBox="0 0 30 30" fill="none" xmlns="http://www.w3.org/2000/svg">
<circle cx="15" cy="15" r="15" fill="#FF9D5C"/>
<path d="M8.63104 10.2727L10.5529 13.4688H10.6211L12.5515 10.2727H14.354L11.6651 14.6364L14.3967 19H12.5643L10.6211 15.8253H10.5529L8.60973 19H6.78587L9.54297 14.6364L6.81996 10.2727H8.63104ZM18.642 19.1193C18.0284 19.1193 17.483 19.0142 17.0057 18.804C16.5313 18.5937 16.1563 18.3011 15.8807 17.9261C15.6051 17.5511 15.4588 17.1179 15.4418 16.6264H17.044C17.0582 16.8622 17.1364 17.0682 17.2784 17.2443C17.4205 17.4176 17.6094 17.5526 17.8452 17.6491C18.081 17.7457 18.3452 17.794 18.6378 17.794C18.9503 17.794 19.2273 17.7401 19.4688 17.6321C19.7102 17.5213 19.8991 17.3679 20.0355 17.1719C20.1719 16.9759 20.2386 16.75 20.2358 16.4943C20.2386 16.2301 20.1705 15.9972 20.0312 15.7955C19.892 15.5937 19.6903 15.4361 19.4261 15.3224C19.1648 15.2088 18.8494 15.152 18.4801 15.152H17.7088V13.9332H18.4801C18.7841 13.9332 19.0497 13.8807 19.277 13.7756C19.5071 13.6705 19.6875 13.5227 19.8182 13.3324C19.9489 13.1392 20.0128 12.9162 20.0099 12.6634C20.0128 12.4162 19.9574 12.2017 19.8438 12.0199C19.733 11.8352 19.5753 11.6918 19.3707 11.5895C19.169 11.4872 18.9318 11.4361 18.6591 11.4361C18.392 11.4361 18.1449 11.4844 17.9176 11.581C17.6903 11.6776 17.5071 11.8153 17.3679 11.9943C17.2287 12.1705 17.1548 12.3807 17.1463 12.625H15.625C15.6364 12.1364 15.777 11.7074 16.0469 11.3381C16.3196 10.9659 16.6832 10.6761 17.1378 10.4688C17.5923 10.2585 18.1023 10.1534 18.6676 10.1534C19.25 10.1534 19.7557 10.2628 20.1847 10.4815C20.6165 10.6974 20.9503 10.9886 21.1861 11.3551C21.4219 11.7216 21.5398 12.1264 21.5398 12.5696C21.5426 13.0611 21.3977 13.473 21.1051 13.8054C20.8153 14.1378 20.4347 14.3551 19.9631 14.4574V14.5256C20.5767 14.6108 21.0469 14.8381 21.3736 15.2074C21.7031 15.5739 21.8665 16.0298 21.8636 16.5753C21.8636 17.0639 21.7244 17.5014 21.446 17.8878C21.1705 18.2713 20.7898 18.5724 20.304 18.7912C19.821 19.0099 19.267 19.1193 18.642 19.1193Z" fill="#17171F"/>
</svg>
