<svg width="24" height="24" viewBox="0 0 24 24" fill="none" xmlns="http://www.w3.org/2000/svg">
<path d="M21.4202 18C22.5168 16.1888 23.1087 14.1171 23.1345 12C23.1087 9.88286 22.5168 7.81118 21.4202 6" stroke="#FF9D5C" stroke-linecap="round" stroke-linejoin="round"/>
<path d="M18 9.42857C18.5959 10.1491 18.9015 11.066 18.8571 12C18.9015 12.934 18.5959 13.8509 18 14.5714" stroke="#FF9D5C" stroke-linecap="round" stroke-linejoin="round"/>
<path d="M5.14286 8.57147H2.57143C1.63772 8.57147 0.857147 9.35203 0.857147 10.2858V13.7143C0.857147 14.648 1.63772 15.4286 2.57143 15.4286H5.14286L11.8457 20.2457C12.9519 21.0111 14.5415 20.2053 14.5714 18.8571V5.14286C14.6036 3.79399 13.1093 2.98675 12 3.75429L5.14286 8.57147Z" stroke="#FF9D5C" stroke-linecap="round" stroke-linejoin="round"/>
</svg>
