<svg width="30" height="30" viewBox="0 0 30 30" fill="none" xmlns="http://www.w3.org/2000/svg">
<circle cx="15" cy="15" r="15" fill="#FF9D5C"/>
<path d="M9.31268 10.2727L11.2346 13.4688H11.3027L13.2331 10.2727H15.0357L12.3468 14.6364L15.0783 19H13.2459L11.3027 15.8253H11.2346L9.29137 19H7.46751L10.2246 14.6364L7.5016 10.2727H9.31268ZM16.1916 19V17.858L19.2214 14.8878C19.5112 14.5952 19.7527 14.3352 19.9458 14.108C20.139 13.8807 20.2839 13.6605 20.3805 13.4474C20.4771 13.2344 20.5254 13.0071 20.5254 12.7656C20.5254 12.4901 20.4629 12.2543 20.3379 12.0582C20.2129 11.8594 20.041 11.706 19.8223 11.598C19.6035 11.4901 19.3549 11.4361 19.0765 11.4361C18.7896 11.4361 18.5382 11.4957 18.3223 11.6151C18.1064 11.7315 17.9387 11.8977 17.8194 12.1136C17.7029 12.3295 17.6447 12.5866 17.6447 12.8849H16.1404C16.1404 12.331 16.2669 11.8494 16.5197 11.4403C16.7725 11.0312 17.1206 10.7145 17.5637 10.4901C18.0098 10.2656 18.5211 10.1534 19.0978 10.1534C19.6831 10.1534 20.1973 10.2628 20.6404 10.4815C21.0836 10.7003 21.4274 11 21.6717 11.3807C21.9189 11.7614 22.0424 12.196 22.0424 12.6847C22.0424 13.0114 21.9799 13.3324 21.8549 13.6477C21.7299 13.9631 21.5098 14.3125 21.1944 14.696C20.8819 15.0795 20.443 15.544 19.8777 16.0895L18.3734 17.6193V17.679H22.1745V19H16.1916Z" fill="#17171F"/>
</svg>
