<svg width="200" height="200" viewBox="0 0 200 200" fill="none" xmlns="http://www.w3.org/2000/svg">
<path d="M36.5385 157H163.462C169.834 157 175 151.834 175 145.462V18.5385C175 12.1659 169.834 7 163.462 7H36.5385C30.1659 7 25 12.1659 25 18.5385V145.462C25 151.834 30.1659 157 36.5385 157Z" stroke="#17171F" stroke-linecap="round" stroke-linejoin="round"/>
<path d="M39.423 157L123.654 77.6149C124.69 76.7515 125.997 76.2787 127.346 76.2787C128.695 76.2787 130.002 76.7515 131.038 77.6149L175 109.115" stroke="#17171F" stroke-linecap="round" stroke-linejoin="round"/>
<path d="M71.1538 70.4615C80.7126 70.4615 88.4615 62.7126 88.4615 53.1538C88.4615 43.595 80.7126 35.8461 71.1538 35.8461C61.595 35.8461 53.8461 43.595 53.8461 53.1538C53.8461 62.7126 61.595 70.4615 71.1538 70.4615Z" stroke="#17171F" stroke-linecap="round" stroke-linejoin="round"/>
<path d="M73.3465 172.727C73.3134 172.416 73.1737 172.175 72.9275 172.002C72.6836 171.829 72.3664 171.743 71.9758 171.743C71.7011 171.743 71.4656 171.784 71.2691 171.867C71.0726 171.95 70.9223 172.062 70.8181 172.205C70.7139 172.347 70.6607 172.509 70.6583 172.691C70.6583 172.843 70.6926 172.974 70.7613 173.085C70.8323 173.196 70.9282 173.291 71.0489 173.369C71.1697 173.445 71.3034 173.509 71.4502 173.561C71.597 173.613 71.7449 173.657 71.8941 173.692L72.5759 173.863C72.8505 173.927 73.1145 174.013 73.3678 174.122C73.6235 174.231 73.8519 174.368 74.0532 174.534C74.2568 174.7 74.4178 174.9 74.5361 175.134C74.6545 175.369 74.7137 175.643 74.7137 175.958C74.7137 176.384 74.6048 176.759 74.387 177.084C74.1692 177.406 73.8543 177.658 73.4424 177.84C73.0328 178.02 72.5368 178.11 71.9545 178.11C71.3886 178.11 70.8974 178.022 70.4807 177.847C70.0664 177.672 69.7421 177.416 69.5077 177.08C69.2757 176.744 69.1502 176.335 69.1313 175.852H70.4275C70.4464 176.105 70.5245 176.316 70.6618 176.484C70.7992 176.652 70.9779 176.777 71.1981 176.86C71.4206 176.943 71.6692 176.984 71.9438 176.984C72.2303 176.984 72.4812 176.942 72.6966 176.857C72.9144 176.769 73.0849 176.648 73.208 176.494C73.3311 176.338 73.3939 176.156 73.3962 175.947C73.3939 175.758 73.3382 175.602 73.2293 175.479C73.1204 175.353 72.9677 175.249 72.7712 175.166C72.5771 175.081 72.3498 175.005 72.0894 174.939L71.262 174.726C70.663 174.572 70.1895 174.339 69.8415 174.026C69.4959 173.711 69.3231 173.294 69.3231 172.773C69.3231 172.344 69.4391 171.969 69.6711 171.647C69.9055 171.325 70.2239 171.075 70.6263 170.898C71.0288 170.718 71.4845 170.628 71.9935 170.628C72.5096 170.628 72.9618 170.718 73.3501 170.898C73.7407 171.075 74.0473 171.323 74.2698 171.64C74.4923 171.955 74.6072 172.317 74.6143 172.727H73.3465ZM78.2462 178.107C77.6993 178.107 77.227 177.993 76.8293 177.766C76.4339 177.536 76.1297 177.212 75.9166 176.793C75.7036 176.371 75.597 175.875 75.597 175.305C75.597 174.744 75.7036 174.251 75.9166 173.827C76.1321 173.401 76.4327 173.07 76.8186 172.833C77.2045 172.594 77.6579 172.474 78.1787 172.474C78.5149 172.474 78.8321 172.529 79.1304 172.638C79.4311 172.744 79.6962 172.91 79.9259 173.135C80.1579 173.36 80.3402 173.646 80.4727 173.994C80.6053 174.34 80.6716 174.752 80.6716 175.23V175.624H76.2007V174.758H79.4394C79.437 174.512 79.3837 174.293 79.2796 174.101C79.1754 173.907 79.0298 173.754 78.8428 173.643C78.6581 173.531 78.4427 173.476 78.1965 173.476C77.9337 173.476 77.7029 173.54 77.504 173.668C77.3051 173.793 77.1501 173.959 77.0388 174.165C76.9299 174.368 76.8743 174.592 76.8719 174.836V175.592C76.8719 175.91 76.9299 176.182 77.0459 176.409C77.1619 176.634 77.3241 176.807 77.5324 176.928C77.7407 177.046 77.9846 177.105 78.2639 177.105C78.451 177.105 78.6202 177.079 78.7718 177.027C78.9233 176.973 79.0547 176.893 79.1659 176.789C79.2772 176.685 79.3612 176.556 79.4181 176.402L80.6183 176.537C80.5426 176.854 80.3982 177.131 80.1851 177.368C79.9744 177.602 79.7045 177.785 79.3754 177.915C79.0464 178.043 78.67 178.107 78.2462 178.107ZM83.0447 170.727V178H81.7591V170.727H83.0447ZM86.7813 178.107C86.2345 178.107 85.7622 177.993 85.3644 177.766C84.9691 177.536 84.6649 177.212 84.4518 176.793C84.2387 176.371 84.1322 175.875 84.1322 175.305C84.1322 174.744 84.2387 174.251 84.4518 173.827C84.6672 173.401 84.9679 173.07 85.3538 172.833C85.7397 172.594 86.193 172.474 86.7139 172.474C87.05 172.474 87.3673 172.529 87.6656 172.638C87.9662 172.744 88.2314 172.91 88.461 173.135C88.693 173.36 88.8753 173.646 89.0079 173.994C89.1405 174.34 89.2068 174.752 89.2068 175.23V175.624H84.7359V174.758H87.9745C87.9722 174.512 87.9189 174.293 87.8147 174.101C87.7106 173.907 87.565 173.754 87.3779 173.643C87.1933 173.531 86.9778 173.476 86.7316 173.476C86.4688 173.476 86.238 173.54 86.0392 173.668C85.8403 173.793 85.6852 173.959 85.574 174.165C85.4651 174.368 85.4094 174.592 85.407 174.836V175.592C85.407 175.91 85.4651 176.182 85.5811 176.409C85.6971 176.634 85.8592 176.807 86.0676 176.928C86.2759 177.046 86.5197 177.105 86.7991 177.105C86.9861 177.105 87.1554 177.079 87.3069 177.027C87.4584 176.973 87.5898 176.893 87.7011 176.789C87.8124 176.685 87.8964 176.556 87.9532 176.402L89.1535 176.537C89.0777 176.854 88.9333 177.131 88.7203 177.368C88.5096 177.602 88.2397 177.785 87.9106 177.915C87.5815 178.043 87.2051 178.107 86.7813 178.107ZM92.6736 178.107C92.1291 178.107 91.6615 177.987 91.2709 177.748C90.8826 177.509 90.5831 177.179 90.3724 176.757C90.1641 176.333 90.0599 175.846 90.0599 175.294C90.0599 174.74 90.1665 174.251 90.3795 173.827C90.5926 173.401 90.8933 173.07 91.2815 172.833C91.6721 172.594 92.1338 172.474 92.6665 172.474C93.1092 172.474 93.501 172.556 93.8419 172.719C94.1852 172.88 94.4586 173.109 94.6622 173.405C94.8658 173.698 94.9818 174.042 95.0102 174.435H93.7815C93.7318 174.172 93.6134 173.953 93.4264 173.778C93.2417 173.6 92.9943 173.511 92.6842 173.511C92.4214 173.511 92.1906 173.582 91.9917 173.724C91.7929 173.864 91.6378 174.065 91.5265 174.328C91.4176 174.591 91.3632 174.906 91.3632 175.273C91.3632 175.644 91.4176 175.964 91.5265 176.232C91.6354 176.497 91.7881 176.701 91.9846 176.846C92.1835 176.988 92.4167 177.059 92.6842 177.059C92.8736 177.059 93.0429 177.023 93.192 176.952C93.3435 176.879 93.4702 176.774 93.572 176.636C93.6738 176.499 93.7436 176.332 93.7815 176.136H95.0102C94.9794 176.522 94.8658 176.864 94.6693 177.162C94.4728 177.458 94.2053 177.69 93.8667 177.858C93.5282 178.024 93.1305 178.107 92.6736 178.107ZM98.7895 172.545V173.54H95.6539V172.545H98.7895ZM96.428 171.239H97.7135V176.359C97.7135 176.532 97.7396 176.665 97.7916 176.757C97.8461 176.847 97.9171 176.909 98.0047 176.942C98.0923 176.975 98.1894 176.991 98.2959 176.991C98.3764 176.991 98.4498 176.986 98.5161 176.974C98.5847 176.962 98.6368 176.951 98.6723 176.942L98.8889 177.947C98.8203 177.97 98.722 177.996 98.5942 178.025C98.4687 178.053 98.3148 178.07 98.1325 178.075C97.8106 178.084 97.5206 178.036 97.2625 177.929C97.0045 177.82 96.7997 177.652 96.6482 177.425C96.499 177.197 96.4256 176.913 96.428 176.572V171.239ZM103.719 170.727V178H102.402V170.727H103.719ZM105.089 178V172.545H106.318V173.472H106.382C106.495 173.16 106.684 172.916 106.946 172.741C107.209 172.563 107.523 172.474 107.888 172.474C108.257 172.474 108.568 172.564 108.821 172.744C109.077 172.922 109.257 173.165 109.361 173.472H109.418C109.539 173.169 109.742 172.928 110.029 172.748C110.318 172.566 110.66 172.474 111.055 172.474C111.557 172.474 111.967 172.633 112.284 172.95C112.601 173.268 112.76 173.73 112.76 174.339V178H111.471V174.538C111.471 174.199 111.381 173.952 111.201 173.795C111.021 173.637 110.801 173.558 110.54 173.558C110.23 173.558 109.987 173.655 109.812 173.849C109.639 174.04 109.553 174.29 109.553 174.598V178H108.292V174.484C108.292 174.203 108.207 173.978 108.037 173.81C107.869 173.642 107.648 173.558 107.376 173.558C107.191 173.558 107.023 173.605 106.872 173.7C106.72 173.792 106.6 173.923 106.51 174.094C106.42 174.262 106.375 174.458 106.375 174.683V178H105.089ZM115.633 178.11C115.288 178.11 114.976 178.049 114.699 177.925C114.425 177.8 114.207 177.615 114.046 177.371C113.887 177.128 113.808 176.827 113.808 176.469C113.808 176.162 113.865 175.907 113.979 175.706C114.092 175.505 114.247 175.344 114.444 175.223C114.64 175.102 114.862 175.011 115.108 174.95C115.356 174.886 115.613 174.839 115.878 174.811C116.198 174.778 116.457 174.748 116.656 174.722C116.855 174.694 116.999 174.651 117.089 174.594C117.182 174.535 117.228 174.444 117.228 174.321V174.3C117.228 174.032 117.149 173.825 116.99 173.678C116.831 173.531 116.603 173.458 116.305 173.458C115.99 173.458 115.74 173.527 115.555 173.664C115.373 173.801 115.25 173.964 115.186 174.151L113.986 173.98C114.08 173.649 114.237 173.372 114.454 173.149C114.672 172.924 114.939 172.756 115.253 172.645C115.568 172.531 115.916 172.474 116.297 172.474C116.56 172.474 116.822 172.505 117.082 172.567C117.343 172.628 117.581 172.73 117.796 172.872C118.012 173.012 118.184 173.202 118.315 173.444C118.447 173.685 118.513 173.987 118.513 174.349V178H117.278V177.251H117.235C117.157 177.402 117.047 177.544 116.905 177.677C116.765 177.807 116.589 177.912 116.376 177.993C116.165 178.071 115.918 178.11 115.633 178.11ZM115.967 177.165C116.225 177.165 116.449 177.115 116.638 177.013C116.828 176.909 116.973 176.771 117.075 176.601C117.179 176.43 117.231 176.245 117.231 176.043V175.401C117.191 175.434 117.123 175.464 117.025 175.493C116.931 175.521 116.824 175.546 116.706 175.567C116.588 175.589 116.47 175.608 116.354 175.624C116.238 175.641 116.138 175.655 116.052 175.667C115.861 175.693 115.689 175.736 115.538 175.795C115.386 175.854 115.266 175.937 115.179 176.043C115.091 176.147 115.047 176.282 115.047 176.448C115.047 176.685 115.134 176.864 115.307 176.984C115.48 177.105 115.7 177.165 115.967 177.165ZM122.178 180.159C121.717 180.159 121.32 180.096 120.989 179.971C120.657 179.848 120.391 179.682 120.19 179.474C119.988 179.265 119.849 179.035 119.771 178.781L120.928 178.501C120.98 178.607 121.056 178.713 121.155 178.817C121.255 178.923 121.389 179.011 121.557 179.08C121.727 179.151 121.941 179.186 122.199 179.186C122.564 179.186 122.866 179.097 123.105 178.92C123.344 178.745 123.464 178.456 123.464 178.053V177.02H123.4C123.333 177.152 123.236 177.289 123.109 177.428C122.983 177.568 122.816 177.685 122.608 177.78C122.402 177.875 122.143 177.922 121.83 177.922C121.411 177.922 121.031 177.824 120.69 177.627C120.352 177.428 120.082 177.132 119.881 176.739C119.682 176.344 119.582 175.849 119.582 175.255C119.582 174.656 119.682 174.151 119.881 173.739C120.082 173.324 120.353 173.011 120.694 172.798C121.035 172.582 121.415 172.474 121.834 172.474C122.153 172.474 122.416 172.529 122.622 172.638C122.83 172.744 122.996 172.873 123.119 173.025C123.242 173.174 123.336 173.315 123.4 173.447H123.471V172.545H124.739V178.089C124.739 178.555 124.627 178.941 124.405 179.246C124.182 179.552 123.878 179.78 123.492 179.932C123.106 180.083 122.668 180.159 122.178 180.159ZM122.189 176.913C122.461 176.913 122.693 176.847 122.885 176.714C123.077 176.582 123.222 176.391 123.322 176.143C123.421 175.894 123.471 175.596 123.471 175.248C123.471 174.905 123.421 174.604 123.322 174.346C123.225 174.088 123.08 173.888 122.888 173.746C122.699 173.601 122.466 173.529 122.189 173.529C121.902 173.529 121.663 173.604 121.472 173.753C121.28 173.902 121.135 174.107 121.038 174.367C120.941 174.625 120.893 174.919 120.893 175.248C120.893 175.582 120.941 175.874 121.038 176.125C121.138 176.374 121.283 176.568 121.475 176.707C121.669 176.845 121.907 176.913 122.189 176.913ZM128.471 178.107C127.924 178.107 127.452 177.993 127.054 177.766C126.659 177.536 126.354 177.212 126.141 176.793C125.928 176.371 125.822 175.875 125.822 175.305C125.822 174.744 125.928 174.251 126.141 173.827C126.357 173.401 126.657 173.07 127.043 172.833C127.429 172.594 127.882 172.474 128.403 172.474C128.739 172.474 129.057 172.529 129.355 172.638C129.656 172.744 129.921 172.91 130.15 173.135C130.382 173.36 130.565 173.646 130.697 173.994C130.83 174.34 130.896 174.752 130.896 175.23V175.624H126.425V174.758H129.664C129.662 174.512 129.608 174.293 129.504 174.101C129.4 173.907 129.254 173.754 129.067 173.643C128.883 173.531 128.667 173.476 128.421 173.476C128.158 173.476 127.927 173.54 127.729 173.668C127.53 173.793 127.375 173.959 127.263 174.165C127.155 174.368 127.099 174.592 127.097 174.836V175.592C127.097 175.91 127.155 176.182 127.271 176.409C127.387 176.634 127.549 176.807 127.757 176.928C127.965 177.046 128.209 177.105 128.489 177.105C128.676 177.105 128.845 177.079 128.996 177.027C129.148 176.973 129.279 176.893 129.391 176.789C129.502 176.685 129.586 176.556 129.643 176.402L130.843 176.537C130.767 176.854 130.623 177.131 130.41 177.368C130.199 177.602 129.929 177.785 129.6 177.915C129.271 178.043 128.895 178.107 128.471 178.107ZM64.1133 181.62H65.4533V190.91H64.1133V181.62ZM60.4633 182.27C61.8633 182.27 62.8933 183.55 62.8933 185.57C62.8933 187.61 61.8633 188.89 60.4633 188.89C59.0633 188.89 58.0333 187.61 58.0333 185.57C58.0333 183.55 59.0633 182.27 60.4633 182.27ZM60.4633 183.48C59.7733 183.48 59.3033 184.21 59.3033 185.57C59.3033 186.95 59.7733 187.69 60.4633 187.69C61.1533 187.69 61.6133 186.95 61.6133 185.57C61.6133 184.21 61.1533 183.48 60.4633 183.48ZM67.4225 182.46H71.8725V188.69H67.4225V182.46ZM70.5725 183.5H68.7325V187.64H70.5725V183.5ZM73.3125 181.62H74.6525V190.91H73.3125V181.62ZM78.3917 183.09H79.4517V184.13C79.4517 186.27 78.5817 188.36 76.8417 189.15L76.0917 188.1C77.6417 187.41 78.3917 185.7 78.3917 184.13V183.09ZM78.6917 183.09H79.7417V184.13C79.7417 185.63 80.4817 187.23 82.0317 187.87L81.3117 188.92C79.5517 188.16 78.6917 186.19 78.6917 184.13V183.09ZM76.4617 182.52H81.6517V183.61H76.4617V182.52ZM82.5117 181.63H83.8517V190.89H82.5117V181.63ZM85.3609 185.78H93.7509V186.75H85.3609V185.78ZM86.3009 187.21H92.7509V189.41H87.6409V190.2H86.3209V188.57H91.4409V188.11H86.3009V187.21ZM86.3209 189.92H93.0109V190.82H86.3209V189.92ZM86.3909 181.79H92.7309V183.97H87.7209V184.73H86.4009V183.14H91.4209V182.68H86.3909V181.79ZM86.4009 184.45H92.9009V185.35H86.4009V184.45ZM101.771 183.6H103.921V184.67H101.771V183.6ZM99.1606 182.2H100.231V183.2C100.231 185.09 99.4406 186.7 97.6906 187.34L96.9906 186.3C98.5206 185.79 99.1606 184.51 99.1606 183.2V182.2ZM99.4506 182.2H100.511V183.21C100.511 184.4 101.121 185.59 102.581 186.09L101.871 187.11C100.211 186.51 99.4506 184.96 99.4506 183.21V182.2ZM103.461 181.64H104.791V188.47H103.461V181.64ZM98.6606 189.67H104.991V190.73H98.6606V189.67ZM98.6606 187.78H100.001V190.26H98.6606V187.78ZM106.55 185.85H107.19C108.53 185.85 109.39 185.83 110.41 185.66L110.53 186.72C109.47 186.9 108.57 186.93 107.19 186.93H106.55V185.85ZM106.55 182.25H110.2V183.31H107.83V186.44H106.55V182.25ZM107.45 184.06H110.1V185.06H107.45V184.06ZM112.87 181.63H114.13V187.28H112.87V181.63ZM111.76 183.9H113.23V184.96H111.76V183.9ZM110.89 181.8H112.13V187.22H110.89V181.8ZM107.77 187.68H114.13V190.89H112.81V188.74H107.77V187.68ZM121.379 181.63H122.699V190.89H121.379V181.63ZM122.399 185.24H124.039V186.35H122.399V185.24ZM115.399 183H120.789V184.06H115.399V183ZM118.109 184.58C119.459 184.58 120.459 185.5 120.459 186.79C120.459 188.08 119.459 189 118.109 189C116.759 189 115.759 188.08 115.759 186.79C115.759 185.5 116.759 184.58 118.109 184.58ZM118.109 185.66C117.479 185.66 117.029 186.08 117.029 186.79C117.029 187.5 117.479 187.92 118.109 187.92C118.739 187.92 119.189 187.5 119.189 186.79C119.189 186.08 118.739 185.66 118.109 185.66ZM117.439 181.78H118.769V183.4H117.439V181.78ZM128.288 184.74H129.818V185.82H128.288V184.74ZM126.308 182.43H127.328V183.99C127.328 186.09 126.748 188.14 125.268 189.05L124.468 188.05C125.828 187.21 126.308 185.56 126.308 183.99V182.43ZM126.598 182.43H127.598V183.93C127.598 185.44 127.988 186.98 129.248 187.8L128.528 188.84C127.058 187.93 126.598 185.93 126.598 183.93V182.43ZM131.328 181.63H132.598V190.89H131.328V181.63ZM129.448 181.77H130.688V190.47H129.448V181.77ZM135.688 186.33H137.008V188.93H135.688V186.33ZM139.048 186.33H140.378V188.93H139.048V186.33ZM133.848 188.74H142.228V189.82H133.848V188.74ZM138.028 182.08C140.018 182.08 141.488 183.06 141.488 184.57C141.488 186.08 140.018 187.05 138.028 187.05C136.028 187.05 134.568 186.08 134.568 184.57C134.568 183.06 136.028 182.08 138.028 182.08ZM138.028 183.12C136.738 183.12 135.878 183.65 135.878 184.57C135.878 185.48 136.738 186.02 138.028 186.02C139.317 186.02 140.178 185.48 140.178 184.57C140.178 183.65 139.317 183.12 138.028 183.12Z" fill="#17171F"/>
</svg>
