<svg width="24" height="24" viewBox="0 0 24 24" fill="none" xmlns="http://www.w3.org/2000/svg">
<g clip-path="url(#clip0_28_12)">
<path d="M14.2122 7.87213C14.2122 11.7277 11.0866 14.8532 7.23108 14.8532C3.37554 14.8532 0.25 11.7277 0.25 7.87213C0.25 4.01659 3.37554 0.891052 7.23108 0.891052C11.0866 0.891052 14.2122 4.01659 14.2122 7.87213Z" stroke="white" stroke-width="0.5"/>
<path d="M18.9836 16.1306C18.9836 19.9862 15.858 23.1117 12.0025 23.1117C8.14693 23.1117 5.02139 19.9862 5.02139 16.1306C5.02139 12.2751 8.14693 9.14954 12.0025 9.14954C15.858 9.14954 18.9836 12.2751 18.9836 16.1306Z" stroke="white" stroke-width="0.5"/>
<path d="M23.75 7.86939C23.75 11.7249 20.6245 14.8505 16.7689 14.8505C12.9134 14.8505 9.78784 11.7249 9.78784 7.86939C9.78784 4.01384 12.9134 0.888306 16.7689 0.888306C20.6245 0.888306 23.75 4.01384 23.75 7.86939Z" stroke="white" stroke-width="0.5"/>
<path d="M11.8122 13.3062C10.6909 12.2823 9.90994 10.9306 9.58293 9.44771C8.6316 9.7914 7.7388 10.3442 6.9762 11.1072C5.97136 12.1126 5.3311 13.3437 5.05442 14.6372L11.8122 13.3062ZM11.8122 13.3062C11.0393 13.9588 10.1144 14.4561 9.07247 14.7357L11.8122 13.3062Z" stroke="white" stroke-width="0.25"/>
<path d="M14.2284 9.1184C14.2685 9.13109 14.3084 9.14413 14.3483 9.15752C14.533 8.13904 14.5013 7.0648 14.2153 5.99875C13.8302 4.56305 13.0389 3.34498 11.9984 2.43454M14.2284 9.1184C14.4064 8.12265 14.3741 7.07306 14.0946 6.03114L14.0946 6.03113C13.7263 4.65823 12.9803 3.48811 11.9984 2.60181M14.2284 9.1184C12.7808 8.6601 11.2197 8.66059 9.77226 9.11967M14.2284 9.1184C14.221 9.15975 14.2132 9.20101 14.2051 9.24217C12.7732 8.78552 11.2273 8.78601 9.79561 9.24342C9.78746 9.20227 9.77968 9.16101 9.77226 9.11967M11.9984 2.60181C12.0257 2.57718 12.0531 2.55276 12.0807 2.52856L11.9984 2.43454M11.9984 2.60181C11.9711 2.57719 11.9437 2.55279 11.916 2.52861L11.9984 2.43454M11.9984 2.60181C11.0171 3.48864 10.2718 4.65911 9.90424 6.03219C9.6253 7.07434 9.59359 8.124 9.77226 9.11967M11.9984 2.43454C10.9584 3.34554 10.1678 4.56399 9.78349 5.99987C9.4981 7.06615 9.46703 8.14044 9.65232 9.15885C9.69221 9.14544 9.73219 9.13238 9.77226 9.11967" stroke="white" stroke-width="0.25"/>
<path d="M17.0257 11.1044L17.0257 11.1044C18.0311 12.1091 18.6721 13.3399 18.9495 14.6332C17.691 15.0404 16.3046 15.1014 14.9316 14.7339C13.8895 14.455 12.9643 13.9582 12.1911 13.3062C13.3117 12.2816 14.0919 10.9294 14.4179 9.44637C15.3695 9.78949 16.2627 10.3418 17.0257 11.1044Z" stroke="white" stroke-width="0.25"/>
</g>
<defs>
<clipPath id="clip0_28_12">
<rect width="24" height="24" fill="white"/>
</clipPath>
</defs>
</svg>
