<svg width="30" height="30" viewBox="0 0 30 30" fill="none" xmlns="http://www.w3.org/2000/svg">
<circle cx="15" cy="15" r="15" fill="#FF9D5C"/>
<path d="M3.3283 10.2727L5.25018 13.4688H5.31836L7.24876 10.2727H9.05131L6.36239 14.6364L9.09393 19H7.26154L5.31836 15.8253H5.25018L3.307 19H1.48313L4.24023 14.6364L1.51722 10.2727H3.3283ZM10.2072 19V17.858L13.237 14.8878C13.5268 14.5952 13.7683 14.3352 13.9615 14.108C14.1547 13.8807 14.2995 13.6605 14.3961 13.4474C14.4927 13.2344 14.541 13.0071 14.541 12.7656C14.541 12.4901 14.4785 12.2543 14.3535 12.0582C14.2285 11.8594 14.0566 11.706 13.8379 11.598C13.6191 11.4901 13.3706 11.4361 13.0922 11.4361C12.8052 11.4361 12.5538 11.4957 12.3379 11.6151C12.122 11.7315 11.9544 11.8977 11.835 12.1136C11.7186 12.3295 11.6603 12.5866 11.6603 12.8849H10.1561C10.1561 12.331 10.2825 11.8494 10.5353 11.4403C10.7882 11.0312 11.1362 10.7145 11.5794 10.4901C12.0254 10.2656 12.5368 10.1534 13.1135 10.1534C13.6987 10.1534 14.2129 10.2628 14.6561 10.4815C15.0993 10.7003 15.443 11 15.6873 11.3807C15.9345 11.7614 16.0581 12.196 16.0581 12.6847C16.0581 13.0114 15.9956 13.3324 15.8706 13.6477C15.7456 13.9631 15.5254 14.3125 15.21 14.696C14.8975 15.0795 14.4586 15.544 13.8933 16.0895L12.389 17.6193V17.679H16.1902V19H10.2072ZM18.6277 19.0938C18.3691 19.0938 18.1475 19.0028 17.9629 18.821C17.7782 18.6392 17.6873 18.4176 17.6902 18.1562C17.6873 17.9006 17.7782 17.6818 17.9629 17.5C18.1475 17.3182 18.3691 17.2273 18.6277 17.2273C18.8777 17.2273 19.095 17.3182 19.2797 17.5C19.4672 17.6818 19.5623 17.9006 19.5652 18.1562C19.5623 18.3295 19.5169 18.4872 19.4288 18.6293C19.3436 18.7713 19.2299 18.8849 19.0879 18.9702C18.9487 19.0526 18.7953 19.0938 18.6277 19.0938ZM24.0694 19.1193C23.5012 19.1193 22.9927 19.0128 22.5439 18.7997C22.095 18.5838 21.7385 18.2884 21.4743 17.9134C21.2129 17.5384 21.0737 17.1094 21.0566 16.6264H22.5907C22.6191 16.9844 22.774 17.277 23.0552 17.5043C23.3365 17.7287 23.6745 17.8409 24.0694 17.8409C24.3791 17.8409 24.6547 17.7699 24.8961 17.6278C25.1376 17.4858 25.3279 17.2884 25.4672 17.0355C25.6064 16.7827 25.6745 16.4943 25.6717 16.1705C25.6745 15.8409 25.6049 15.5483 25.4629 15.2926C25.3208 15.0369 25.1262 14.8366 24.8791 14.6918C24.6319 14.544 24.3478 14.4702 24.0268 14.4702C23.7654 14.4673 23.5083 14.5156 23.2555 14.6151C23.0027 14.7145 22.8024 14.8452 22.6547 15.0071L21.2271 14.7727L21.6831 10.2727H26.7456V11.5938H22.9913L22.7399 13.9077H22.791C22.9529 13.7173 23.1816 13.5597 23.4771 13.4347C23.7725 13.3068 24.0964 13.2429 24.4487 13.2429C24.9771 13.2429 25.4487 13.3679 25.8635 13.6179C26.2782 13.8651 26.6049 14.206 26.8436 14.6406C27.0822 15.0753 27.2015 15.5724 27.2015 16.1321C27.2015 16.7088 27.068 17.223 26.801 17.6747C26.5368 18.1236 26.1689 18.4773 25.6973 18.7358C25.2285 18.9915 24.6859 19.1193 24.0694 19.1193Z" fill="#17171F"/>
</svg>
