<svg width="30" height="30" viewBox="0 0 30 30" fill="none" xmlns="http://www.w3.org/2000/svg">
<circle cx="15" cy="15" r="15" fill="#FF9D5C"/>
<path d="M3.22283 10.2727L5.14471 13.4688H5.21289L7.14329 10.2727H8.94585L6.25692 14.6364L8.98846 19H7.15607L5.21289 15.8253H5.14471L3.20153 19H1.37766L4.13477 14.6364L1.41175 10.2727H3.22283ZM13.3276 19.1662C12.6259 19.1662 12.0236 18.9886 11.5208 18.6335C11.0208 18.2756 10.6358 17.7599 10.3659 17.0866C10.0989 16.4105 9.96538 15.5966 9.96538 14.6449C9.96822 13.6932 10.1032 12.8835 10.3702 12.2159C10.6401 11.5455 11.025 11.0341 11.525 10.6818C12.0279 10.3295 12.6287 10.1534 13.3276 10.1534C14.0265 10.1534 14.6273 10.3295 15.1301 10.6818C15.633 11.0341 16.0179 11.5455 16.285 12.2159C16.5549 12.8864 16.6898 13.696 16.6898 14.6449C16.6898 15.5994 16.5549 16.4148 16.285 17.0909C16.0179 17.7642 15.633 18.2784 15.1301 18.6335C14.6301 18.9886 14.0293 19.1662 13.3276 19.1662ZM13.3276 17.8324C13.873 17.8324 14.3034 17.5639 14.6188 17.027C14.937 16.4872 15.0961 15.6932 15.0961 14.6449C15.0961 13.9517 15.0236 13.3693 14.8787 12.8977C14.7338 12.4261 14.5293 12.071 14.2651 11.8324C14.0009 11.5909 13.6884 11.4702 13.3276 11.4702C12.785 11.4702 12.356 11.7401 12.0407 12.2798C11.7253 12.8168 11.5662 13.6051 11.5634 14.6449C11.5605 15.3409 11.6301 15.9261 11.7722 16.4006C11.9171 16.875 12.1216 17.233 12.3858 17.4744C12.65 17.7131 12.964 17.8324 13.3276 17.8324ZM18.7331 19.0938C18.4746 19.0938 18.253 19.0028 18.0684 18.821C17.8837 18.6392 17.7928 18.4176 17.7956 18.1562C17.7928 17.9006 17.8837 17.6818 18.0684 17.5C18.253 17.3182 18.4746 17.2273 18.7331 17.2273C18.9831 17.2273 19.2005 17.3182 19.3851 17.5C19.5726 17.6818 19.6678 17.9006 19.6706 18.1562C19.6678 18.3295 19.6223 18.4872 19.5343 18.6293C19.449 18.7713 19.3354 18.8849 19.1934 18.9702C19.0542 19.0526 18.9007 19.0938 18.7331 19.0938ZM24.1749 19.1193C23.6067 19.1193 23.0982 19.0128 22.6493 18.7997C22.2005 18.5838 21.8439 18.2884 21.5797 17.9134C21.3184 17.5384 21.1792 17.1094 21.1621 16.6264H22.6962C22.7246 16.9844 22.8794 17.277 23.1607 17.5043C23.4419 17.7287 23.78 17.8409 24.1749 17.8409C24.4846 17.8409 24.7601 17.7699 25.0016 17.6278C25.2431 17.4858 25.4334 17.2884 25.5726 17.0355C25.7118 16.7827 25.78 16.4943 25.7772 16.1705C25.78 15.8409 25.7104 15.5483 25.5684 15.2926C25.4263 15.0369 25.2317 14.8366 24.9846 14.6918C24.7374 14.544 24.4533 14.4702 24.1323 14.4702C23.8709 14.4673 23.6138 14.5156 23.361 14.6151C23.1081 14.7145 22.9078 14.8452 22.7601 15.0071L21.3326 14.7727L21.7885 10.2727H26.851V11.5938H23.0968L22.8453 13.9077H22.8965C23.0584 13.7173 23.2871 13.5597 23.5826 13.4347C23.878 13.3068 24.2019 13.2429 24.5542 13.2429C25.0826 13.2429 25.5542 13.3679 25.9689 13.6179C26.3837 13.8651 26.7104 14.206 26.949 14.6406C27.1877 15.0753 27.307 15.5724 27.307 16.1321C27.307 16.7088 27.1735 17.223 26.9064 17.6747C26.6422 18.1236 26.2743 18.4773 25.8027 18.7358C25.334 18.9915 24.7914 19.1193 24.1749 19.1193Z" fill="#17171F"/>
</svg>
