<svg width="30" height="30" viewBox="0 0 30 30" fill="none" xmlns="http://www.w3.org/2000/svg">
<circle cx="15" cy="15" r="15" fill="#FF9D5C"/>
<path d="M8.24237 10.2727L10.1642 13.4688H10.2324L12.1628 10.2727H13.9654L11.2765 14.6364L14.008 19H12.1756L10.2324 15.8253H10.1642L8.22106 19H6.39719L9.1543 14.6364L6.43129 10.2727H8.24237ZM18.1554 19.1193C17.5872 19.1193 17.0787 19.0128 16.6298 18.7997C16.1809 18.5838 15.8244 18.2884 15.5602 17.9134C15.2988 17.5384 15.1596 17.1094 15.1426 16.6264H16.6767C16.7051 16.9844 16.8599 17.277 17.1412 17.5043C17.4224 17.7287 17.7605 17.8409 18.1554 17.8409C18.465 17.8409 18.7406 17.7699 18.9821 17.6278C19.2235 17.4858 19.4139 17.2884 19.5531 17.0355C19.6923 16.7827 19.7605 16.4943 19.7576 16.1705C19.7605 15.8409 19.6909 15.5483 19.5488 15.2926C19.4068 15.0369 19.2122 14.8366 18.965 14.6918C18.7179 14.544 18.4338 14.4702 18.1127 14.4702C17.8514 14.4673 17.5943 14.5156 17.3414 14.6151C17.0886 14.7145 16.8883 14.8452 16.7406 15.0071L15.313 14.7727L15.769 10.2727H20.8315V11.5938H17.0772L16.8258 13.9077H16.877C17.0389 13.7173 17.2676 13.5597 17.563 13.4347C17.8585 13.3068 18.1824 13.2429 18.5346 13.2429C19.063 13.2429 19.5346 13.3679 19.9494 13.6179C20.3642 13.8651 20.6909 14.206 20.9295 14.6406C21.1681 15.0753 21.2875 15.5724 21.2875 16.1321C21.2875 16.7088 21.1539 17.223 20.8869 17.6747C20.6227 18.1236 20.2548 18.4773 19.7832 18.7358C19.3145 18.9915 18.7718 19.1193 18.1554 19.1193Z" fill="#17171F"/>
</svg>
